# xmcd
#
# Track frame offsets:
#	150
#	1862
#	5730
#	15119
#	25578
#	38132
#	49718
#	59049
#	71144
#	82546
#	90971
#	101174
#	112510
#	124841
#	134773
#	141630
#	164133
#	175766
#	186678
#
# Disc length: 2552 seconds
# Revision: 2
# Processed by: cddbd v1.5.2PL0 Copyright (c) Steve Scherf et al.
# Submitted via: dBpowerAMP V12.0
#
DISCID=fb09f613
DTITLE=Bill Monroe and His Bluegrass Boys - Live at Mechanics Hall
DYEAR=2004
DGENRE=Bluegrass
TTITLE0=Watermelon Hangin' on That Vine
TTITLE1=Band Intros
TTITLE2=Panhandle Country
TTITLE3=Dark Hollow
TTITLE4=On and On
TTITLE5=Devil's Dream
TTITLE6=Love's Gonna Live Here
TTITLE7=Dreaming of a Little Cabin
TTITLE8=Muleskinner Blues
TTITLE9=Footprints in the Snow
TTITLE10=Blue Moon of Kentucky
TTITLE11=Rawhide
TTITLE12=John Henry
TTITLE13=I Saw the Light
TTITLE14=Waiting for Bea
TTITLE15=What Would You Give in Exchange?
TTITLE16=Uncle Pen
TTITLE17=Blue Ridge Mountain Blues
TTITLE18=Y'all Come
EXTD=
EXTT0=
EXTT1=
EXTT2=
EXTT3=
EXTT4=
EXTT5=
EXTT6=
EXTT7=
EXTT8=
EXTT9=
EXTT10=
EXTT11=
EXTT12=
EXTT13=
EXTT14=
EXTT15=
EXTT16=
EXTT17=
EXTT18=
PLAYORDER=
